<?xml version="1.0" encoding="UTF-8" standalone="no"?><!DOCTYPE svg PUBLIC "-//W3C//DTD SVG 1.1//EN" "http://www.w3.org/Graphics/SVG/1.1/DTD/svg11.dtd"><svg xmlns="http://www.w3.org/2000/svg" xmlns:xlink="http://www.w3.org/1999/xlink" version="1.1" width="24" height="24" viewBox="0 0 24 24">
<desc>Created with SVGMaker Editor 2.2.3</desc>
<defs>
</defs>
<g transform="matrix(1 0 0 1 12.1687 12.4616)">
<g transform="translate(0,0)" style="">
<path transform="translate(0,0)" style="stroke: rgb(255, 255, 255); stroke-width: 2; stroke-dasharray: ; stroke-linecap: round; stroke-linejoin: round; fill: none" vector-effect="non-scaling-stroke" stroke-linecap="round" d="M-3.0392-8.3969L-6.0524-8.3969C-7.1619-8.3969-8.0612-7.5015-8.0612-6.3969L-8.0612-3.3969"/>
<path transform="translate(0,0)" style="stroke: rgb(255, 255, 255); stroke-width: 2; fill: none" vector-effect="non-scaling-stroke" stroke-linecap="round" d="M-8.0612-3.6469L-8.1616 4.3531"/>
<path transform="translate(0,0)" style="stroke: rgb(255, 255, 255); stroke-width: 2; fill: none" vector-effect="non-scaling-stroke" stroke-linecap="round" d="M3.7524-8.3345L-4.2824-8.4617"/>
<path transform="translate(0,0)" style="stroke: rgb(255, 255, 255); stroke-width: 2; stroke-linecap: round; stroke-linejoin: round; fill: none" vector-effect="non-scaling-stroke" stroke-linecap="round" d="M8.0663-3.3969L8.0663-6.3969C8.0663-7.5015 7.167-8.3969 6.0575-8.3969L3.0443-8.3969"/>
<path transform="translate(0,0)" style="stroke: rgb(255, 255, 255); stroke-width: 2; fill: none" vector-effect="non-scaling-stroke" stroke-linecap="round" d="M8.0635 3.4531L8.1687-4.5469"/>
<path transform="translate(0,0)" style="stroke: rgb(255, 255, 255); stroke-width: 2; stroke-dasharray: ; stroke-linecap: round; stroke-linejoin: round; fill: none" vector-effect="non-scaling-stroke" stroke-linecap="round" d="M-8.1688 3.373L-8.1616 6.373C-8.1589 7.4776-7.2575 8.3709-6.148 8.3682L-3.1348 8.361"/>
<path transform="translate(0,0)" style="stroke: rgb(255, 255, 255); stroke-width: 2; stroke-linecap: round; stroke-linejoin: round; fill: none" vector-effect="non-scaling-stroke" stroke-linecap="round" d="M3.0997 8.4427L6.1129 8.4355C7.2224 8.4328 8.1196 7.5353 8.1169 6.4307L8.1097 3.4307"/>
<path transform="translate(0,0)" style="stroke: rgb(255, 255, 255); stroke-width: 2; fill: none" vector-effect="non-scaling-stroke" stroke-linecap="round" d="M-2.886 8.3618L5.1494 8.4426"/>
</g>
</g>
</svg>