<?xml version="1.0" encoding="UTF-8" standalone="no"?><!DOCTYPE svg PUBLIC "-//W3C//DTD SVG 1.1//EN" "http://www.w3.org/Graphics/SVG/1.1/DTD/svg11.dtd"><svg xmlns="http://www.w3.org/2000/svg" xmlns:xlink="http://www.w3.org/1999/xlink" version="1.1" width="24" height="24" viewBox="0 0 24 24">
<desc>Created with SVGMaker Editor 2.2.3</desc>
<defs>
</defs>
<g transform="matrix(1 0 0 1 11.9673 12.145)">
<g transform="translate(0,0)" style="">
<g transform="matrix(0.4474 0 0 0.4474 -4.9311 -4.9547)">
<g transform="translate(0,0)" style="">
<path transform="translate(0,0)" style="stroke: rgb(255, 255, 255); stroke-dasharray: ; stroke-linecap: round; stroke-linejoin: round; fill: none" vector-effect="non-scaling-stroke" stroke-linecap="round" d="M-3.3896-8.7984L-6.4028-8.7984C-7.5123-8.7984-8.4116-7.903-8.4116-6.7984L-8.4116-3.7984"/>
<path transform="translate(0,0)" style="stroke: rgb(255, 255, 255); fill: none" vector-effect="non-scaling-stroke" stroke-linecap="round" d="M-8.4116-4.0484L-8.512 3.9516"/>
<path transform="translate(0,0)" style="stroke: rgb(255, 255, 255); fill: none" vector-effect="non-scaling-stroke" stroke-linecap="round" d="M4.4037-8.7343L-3.6311-8.8615"/>
<path transform="translate(0,0)" style="stroke: rgb(255, 255, 255); stroke-linecap: round; stroke-linejoin: round; fill: none" vector-effect="non-scaling-stroke" stroke-linecap="round" d="M8.5159-3.6984L8.5159-6.6984C8.5159-7.803 7.6166-8.6984 6.5071-8.6984L3.4939-8.6984"/>
<path transform="translate(0,0)" style="stroke: rgb(255, 255, 255); fill: none" vector-effect="non-scaling-stroke" stroke-linecap="round" d="M8.4127 4.052L8.5179-3.948"/>
<path transform="translate(0,0)" style="stroke: rgb(255, 255, 255); stroke-dasharray: ; stroke-linecap: round; stroke-linejoin: round; fill: none" vector-effect="non-scaling-stroke" stroke-linecap="round" d="M-8.518 3.7728L-8.5108 6.7728C-8.5081 7.8774-7.6067 8.7707-6.4972 8.768L-3.484 8.7608"/>
<path transform="translate(0,0)" style="stroke: rgb(255, 255, 255); stroke-linecap: round; stroke-linejoin: round; fill: none" vector-effect="non-scaling-stroke" stroke-linecap="round" d="M3.3505 8.8425L6.3637 8.8353C7.4732 8.8326 8.3704 7.9351 8.3677 6.8305L8.3605 3.8305"/>
<path transform="translate(0,0)" style="stroke: rgb(255, 255, 255); fill: none" vector-effect="non-scaling-stroke" stroke-linecap="round" d="M-3.4352 8.7615L4.6002 8.8423"/>
</g>
</g>
<g transform="matrix(0.4474 0 0 0.4474 5.0327 -4.945)">
<g transform="translate(0,0)" style="">
<path transform="translate(0,0)" style="stroke: rgb(255, 255, 255); stroke-dasharray: ; stroke-linecap: round; stroke-linejoin: round; fill: none" vector-effect="non-scaling-stroke" stroke-linecap="round" d="M-3.3896-8.7984L-6.4028-8.7984C-7.5123-8.7984-8.4116-7.903-8.4116-6.7984L-8.4116-3.7984"/>
<path transform="translate(0,0)" style="stroke: rgb(255, 255, 255); fill: none" vector-effect="non-scaling-stroke" stroke-linecap="round" d="M-8.4116-4.0484L-8.512 3.9516"/>
<path transform="translate(0,0)" style="stroke: rgb(255, 255, 255); fill: none" vector-effect="non-scaling-stroke" stroke-linecap="round" d="M4.4037-8.7343L-3.6311-8.8615"/>
<path transform="translate(0,0)" style="stroke: rgb(255, 255, 255); stroke-linecap: round; stroke-linejoin: round; fill: none" vector-effect="non-scaling-stroke" stroke-linecap="round" d="M8.5159-3.6984L8.5159-6.6984C8.5159-7.803 7.6166-8.6984 6.5071-8.6984L3.4939-8.6984"/>
<path transform="translate(0,0)" style="stroke: rgb(255, 255, 255); fill: none" vector-effect="non-scaling-stroke" stroke-linecap="round" d="M8.4127 4.052L8.5179-3.948"/>
<path transform="translate(0,0)" style="stroke: rgb(255, 255, 255); stroke-dasharray: ; stroke-linecap: round; stroke-linejoin: round; fill: none" vector-effect="non-scaling-stroke" stroke-linecap="round" d="M-8.518 3.7727L-8.5108 6.7727C-8.5081 7.8773-7.6067 8.7706-6.4972 8.7679L-3.484 8.7607"/>
<path transform="translate(0,0)" style="stroke: rgb(255, 255, 255); stroke-linecap: round; stroke-linejoin: round; fill: none" vector-effect="non-scaling-stroke" stroke-linecap="round" d="M3.3505 8.8424L6.3637 8.8352C7.4732 8.8325 8.3704 7.935 8.3677 6.8304L8.3605 3.8304"/>
<path transform="translate(0,0)" style="stroke: rgb(255, 255, 255); fill: none" vector-effect="non-scaling-stroke" stroke-linecap="round" d="M-3.4352 8.7615L4.6002 8.8423"/>
</g>
</g>
<g transform="matrix(0.4474 0 0 0.4474 -5.0327 4.9433)">
<g transform="translate(0,0)" style="">
<path transform="translate(0,0)" style="stroke: rgb(255, 255, 255); stroke-dasharray: ; stroke-linecap: round; stroke-linejoin: round; fill: none" vector-effect="non-scaling-stroke" stroke-linecap="round" d="M-3.3896-8.7984L-6.4028-8.7984C-7.5123-8.7984-8.4116-7.903-8.4116-6.7984L-8.4116-3.7984"/>
<path transform="translate(0,0)" style="stroke: rgb(255, 255, 255); fill: none" vector-effect="non-scaling-stroke" stroke-linecap="round" d="M-8.4116-4.0484L-8.512 3.9516"/>
<path transform="translate(0,0)" style="stroke: rgb(255, 255, 255); fill: none" vector-effect="non-scaling-stroke" stroke-linecap="round" d="M4.4037-8.7343L-3.6311-8.8615"/>
<path transform="translate(0,0)" style="stroke: rgb(255, 255, 255); stroke-linecap: round; stroke-linejoin: round; fill: none" vector-effect="non-scaling-stroke" stroke-linecap="round" d="M8.5159-3.6984L8.5159-6.6984C8.5159-7.803 7.6166-8.6984 6.5071-8.6984L3.4939-8.6984"/>
<path transform="translate(0,0)" style="stroke: rgb(255, 255, 255); fill: none" vector-effect="non-scaling-stroke" stroke-linecap="round" d="M8.4127 4.052L8.5179-3.948"/>
<path transform="translate(0,0)" style="stroke: rgb(255, 255, 255); stroke-dasharray: ; stroke-linecap: round; stroke-linejoin: round; fill: none" vector-effect="non-scaling-stroke" stroke-linecap="round" d="M-8.518 3.7727L-8.5108 6.7727C-8.5081 7.8773-7.6067 8.7706-6.4972 8.7679L-3.484 8.7607"/>
<path transform="translate(0,0)" style="stroke: rgb(255, 255, 255); stroke-linecap: round; stroke-linejoin: round; fill: none" vector-effect="non-scaling-stroke" stroke-linecap="round" d="M3.3505 8.8424L6.3637 8.8352C7.4732 8.8325 8.3704 7.935 8.3677 6.8304L8.3605 3.8304"/>
<path transform="translate(0,0)" style="stroke: rgb(255, 255, 255); fill: none" vector-effect="non-scaling-stroke" stroke-linecap="round" d="M-3.4352 8.7615L4.6002 8.8423"/>
</g>
</g>
<g transform="matrix(0.4474 0 0 0.4474 5.0327 4.955)">
<g transform="translate(0,0)" style="">
<path transform="translate(0,0)" style="stroke: rgb(255, 255, 255); stroke-dasharray: ; stroke-linecap: round; stroke-linejoin: round; fill: none" vector-effect="non-scaling-stroke" stroke-linecap="round" d="M-3.3896-8.7984L-6.4028-8.7984C-7.5123-8.7984-8.4116-7.903-8.4116-6.7984L-8.4116-3.7984"/>
<path transform="translate(0,0)" style="stroke: rgb(255, 255, 255); fill: none" vector-effect="non-scaling-stroke" stroke-linecap="round" d="M-8.4116-4.0484L-8.512 3.9516"/>
<path transform="translate(0,0)" style="stroke: rgb(255, 255, 255); fill: none" vector-effect="non-scaling-stroke" stroke-linecap="round" d="M4.4037-8.7343L-3.6311-8.8615"/>
<path transform="translate(0,0)" style="stroke: rgb(255, 255, 255); stroke-linecap: round; stroke-linejoin: round; fill: none" vector-effect="non-scaling-stroke" stroke-linecap="round" d="M8.5159-3.6984L8.5159-6.6984C8.5159-7.803 7.6166-8.6984 6.5071-8.6984L3.4939-8.6984"/>
<path transform="translate(0,0)" style="stroke: rgb(255, 255, 255); fill: none" vector-effect="non-scaling-stroke" stroke-linecap="round" d="M8.4127 4.052L8.5179-3.948"/>
<path transform="translate(0,0)" style="stroke: rgb(255, 255, 255); stroke-dasharray: ; stroke-linecap: round; stroke-linejoin: round; fill: none" vector-effect="non-scaling-stroke" stroke-linecap="round" d="M-8.518 3.7727L-8.5108 6.7727C-8.5081 7.8773-7.6067 8.7706-6.4972 8.7679L-3.484 8.7607"/>
<path transform="translate(0,0)" style="stroke: rgb(255, 255, 255); stroke-linecap: round; stroke-linejoin: round; fill: none" vector-effect="non-scaling-stroke" stroke-linecap="round" d="M3.3505 8.8424L6.3637 8.8352C7.4732 8.8325 8.3704 7.935 8.3677 6.8304L8.3605 3.8304"/>
<path transform="translate(0,0)" style="stroke: rgb(255, 255, 255); fill: none" vector-effect="non-scaling-stroke" stroke-linecap="round" d="M-3.4352 8.7615L4.6002 8.8423"/>
</g>
</g>
</g>
</g>
</svg>